<mxfile host="app.diagrams.net" modified="2020-11-23T10:58:13.332Z" agent="5.0 (Macintosh; Intel Mac OS X 10_15_0) AppleWebKit/537.36 (KHTML, like Gecko) Chrome/87.0.4280.67 Safari/537.36" etag="xYJxedpnmkI6tu8kpJ-K" version="13.10.0" type="github">
  <diagram id="jp2Y9jRFlkztXLDR2WbW" name="Page-1">
    <mxGraphModel dx="896" dy="590" grid="1" gridSize="10" guides="1" tooltips="1" connect="1" arrows="1" fold="1" page="1" pageScale="1" pageWidth="827" pageHeight="1169" math="0" shadow="0">
      <root>
        <mxCell id="0" />
        <mxCell id="1" parent="0" />
        <mxCell id="cgGXA-gtUY1WTYWLW74D-1" value="片段 1" style="rounded=1;whiteSpace=wrap;html=1;" parent="1" vertex="1">
          <mxGeometry x="130" y="120" width="120" height="60" as="geometry" />
        </mxCell>
        <mxCell id="cgGXA-gtUY1WTYWLW74D-2" value="片段 2" style="rounded=1;whiteSpace=wrap;html=1;" parent="1" vertex="1">
          <mxGeometry x="250" y="120" width="120" height="60" as="geometry" />
        </mxCell>
        <mxCell id="cgGXA-gtUY1WTYWLW74D-3" value="片段 3" style="rounded=1;whiteSpace=wrap;html=1;" parent="1" vertex="1">
          <mxGeometry x="370" y="120" width="120" height="60" as="geometry" />
        </mxCell>
        <mxCell id="cgGXA-gtUY1WTYWLW74D-4" value="片段 4" style="rounded=1;whiteSpace=wrap;html=1;" parent="1" vertex="1">
          <mxGeometry x="490" y="120" width="120" height="60" as="geometry" />
        </mxCell>
        <mxCell id="cgGXA-gtUY1WTYWLW74D-5" value="转场 1" style="rounded=0;whiteSpace=wrap;html=1;" parent="1" vertex="1">
          <mxGeometry x="230" y="130" width="40" height="40" as="geometry" />
        </mxCell>
        <mxCell id="cgGXA-gtUY1WTYWLW74D-6" value="转场 2" style="rounded=0;whiteSpace=wrap;html=1;" parent="1" vertex="1">
          <mxGeometry x="350" y="130" width="40" height="40" as="geometry" />
        </mxCell>
        <mxCell id="cgGXA-gtUY1WTYWLW74D-7" value="转场 3" style="rounded=0;whiteSpace=wrap;html=1;" parent="1" vertex="1">
          <mxGeometry x="470" y="130" width="40" height="40" as="geometry" />
        </mxCell>
        <mxCell id="cgGXA-gtUY1WTYWLW74D-8" value="" style="shape=flexArrow;endArrow=classic;html=1;" parent="1" edge="1">
          <mxGeometry width="50" height="50" relative="1" as="geometry">
            <mxPoint x="370" y="50" as="sourcePoint" />
            <mxPoint x="370" y="120" as="targetPoint" />
          </mxGeometry>
        </mxCell>
        <mxCell id="cgGXA-gtUY1WTYWLW74D-9" value="此处插入片段" style="text;html=1;strokeColor=none;fillColor=none;align=center;verticalAlign=middle;whiteSpace=wrap;rounded=0;" parent="1" vertex="1">
          <mxGeometry x="330" y="30" width="90" height="20" as="geometry" />
        </mxCell>
        <mxCell id="YivMEvw6DxP14KVyqrl9-2" value="" style="shape=flexArrow;endArrow=classic;html=1;endWidth=60;endSize=11;width=42;" edge="1" parent="1">
          <mxGeometry width="50" height="50" relative="1" as="geometry">
            <mxPoint x="369" y="200" as="sourcePoint" />
            <mxPoint x="369" y="270" as="targetPoint" />
          </mxGeometry>
        </mxCell>
        <mxCell id="YivMEvw6DxP14KVyqrl9-3" value="片段 1" style="rounded=1;whiteSpace=wrap;html=1;" vertex="1" parent="1">
          <mxGeometry x="130" y="290" width="120" height="60" as="geometry" />
        </mxCell>
        <mxCell id="YivMEvw6DxP14KVyqrl9-4" value="片段 2" style="rounded=1;whiteSpace=wrap;html=1;" vertex="1" parent="1">
          <mxGeometry x="250" y="290" width="120" height="60" as="geometry" />
        </mxCell>
        <mxCell id="YivMEvw6DxP14KVyqrl9-5" value="片段 3" style="rounded=1;whiteSpace=wrap;html=1;" vertex="1" parent="1">
          <mxGeometry x="490" y="290" width="120" height="60" as="geometry" />
        </mxCell>
        <mxCell id="YivMEvw6DxP14KVyqrl9-6" value="片段 4" style="rounded=1;whiteSpace=wrap;html=1;" vertex="1" parent="1">
          <mxGeometry x="610" y="290" width="120" height="60" as="geometry" />
        </mxCell>
        <mxCell id="YivMEvw6DxP14KVyqrl9-7" value="转场 1" style="rounded=0;whiteSpace=wrap;html=1;" vertex="1" parent="1">
          <mxGeometry x="230" y="300" width="40" height="40" as="geometry" />
        </mxCell>
        <mxCell id="YivMEvw6DxP14KVyqrl9-9" value="转场 3" style="rounded=0;whiteSpace=wrap;html=1;" vertex="1" parent="1">
          <mxGeometry x="590" y="300" width="40" height="40" as="geometry" />
        </mxCell>
        <mxCell id="YivMEvw6DxP14KVyqrl9-10" value="增加的片段" style="rounded=1;whiteSpace=wrap;html=1;" vertex="1" parent="1">
          <mxGeometry x="370" y="290" width="120" height="60" as="geometry" />
        </mxCell>
        <mxCell id="YivMEvw6DxP14KVyqrl9-8" value="转场 2" style="rounded=0;whiteSpace=wrap;html=1;" vertex="1" parent="1">
          <mxGeometry x="350" y="300" width="40" height="40" as="geometry" />
        </mxCell>
        <mxCell id="YivMEvw6DxP14KVyqrl9-11" value="片段 1" style="rounded=1;whiteSpace=wrap;html=1;" vertex="1" parent="1">
          <mxGeometry x="120" y="515" width="120" height="60" as="geometry" />
        </mxCell>
        <mxCell id="YivMEvw6DxP14KVyqrl9-12" value="片段 2" style="rounded=1;whiteSpace=wrap;html=1;" vertex="1" parent="1">
          <mxGeometry x="240" y="515" width="120" height="60" as="geometry" />
        </mxCell>
        <mxCell id="YivMEvw6DxP14KVyqrl9-13" value="片段 3" style="rounded=1;whiteSpace=wrap;html=1;" vertex="1" parent="1">
          <mxGeometry x="360" y="515" width="120" height="60" as="geometry" />
        </mxCell>
        <mxCell id="YivMEvw6DxP14KVyqrl9-14" value="片段 4" style="rounded=1;whiteSpace=wrap;html=1;" vertex="1" parent="1">
          <mxGeometry x="480" y="515" width="120" height="60" as="geometry" />
        </mxCell>
        <mxCell id="YivMEvw6DxP14KVyqrl9-15" value="转场 1" style="rounded=0;whiteSpace=wrap;html=1;" vertex="1" parent="1">
          <mxGeometry x="220" y="525" width="40" height="40" as="geometry" />
        </mxCell>
        <mxCell id="YivMEvw6DxP14KVyqrl9-16" value="转场 2" style="rounded=0;whiteSpace=wrap;html=1;" vertex="1" parent="1">
          <mxGeometry x="340" y="525" width="40" height="40" as="geometry" />
        </mxCell>
        <mxCell id="YivMEvw6DxP14KVyqrl9-17" value="转场 3" style="rounded=0;whiteSpace=wrap;html=1;" vertex="1" parent="1">
          <mxGeometry x="460" y="525" width="40" height="40" as="geometry" />
        </mxCell>
        <mxCell id="YivMEvw6DxP14KVyqrl9-18" value="" style="shape=flexArrow;endArrow=classic;html=1;" edge="1" parent="1">
          <mxGeometry width="50" height="50" relative="1" as="geometry">
            <mxPoint x="309.5" y="445" as="sourcePoint" />
            <mxPoint x="309.5" y="515" as="targetPoint" />
          </mxGeometry>
        </mxCell>
        <mxCell id="YivMEvw6DxP14KVyqrl9-19" value="删除片段2" style="text;html=1;strokeColor=none;fillColor=none;align=center;verticalAlign=middle;whiteSpace=wrap;rounded=0;" vertex="1" parent="1">
          <mxGeometry x="265" y="425" width="90" height="20" as="geometry" />
        </mxCell>
        <mxCell id="YivMEvw6DxP14KVyqrl9-20" value="" style="shape=flexArrow;endArrow=classic;html=1;endWidth=60;endSize=11;width=42;" edge="1" parent="1">
          <mxGeometry width="50" height="50" relative="1" as="geometry">
            <mxPoint x="359" y="595" as="sourcePoint" />
            <mxPoint x="359" y="665" as="targetPoint" />
          </mxGeometry>
        </mxCell>
        <mxCell id="YivMEvw6DxP14KVyqrl9-21" value="片段 1" style="rounded=1;whiteSpace=wrap;html=1;" vertex="1" parent="1">
          <mxGeometry x="120" y="685" width="120" height="60" as="geometry" />
        </mxCell>
        <mxCell id="YivMEvw6DxP14KVyqrl9-22" value="片段 2" style="rounded=1;whiteSpace=wrap;html=1;" vertex="1" parent="1">
          <mxGeometry x="230" y="870" width="120" height="60" as="geometry" />
        </mxCell>
        <mxCell id="YivMEvw6DxP14KVyqrl9-23" value="片段 3" style="rounded=1;whiteSpace=wrap;html=1;" vertex="1" parent="1">
          <mxGeometry x="240" y="685" width="120" height="60" as="geometry" />
        </mxCell>
        <mxCell id="YivMEvw6DxP14KVyqrl9-24" value="片段 4" style="rounded=1;whiteSpace=wrap;html=1;" vertex="1" parent="1">
          <mxGeometry x="360" y="685" width="120" height="60" as="geometry" />
        </mxCell>
        <mxCell id="YivMEvw6DxP14KVyqrl9-25" value="转场 1" style="rounded=0;whiteSpace=wrap;html=1;" vertex="1" parent="1">
          <mxGeometry x="220" y="695" width="40" height="40" as="geometry" />
        </mxCell>
        <mxCell id="YivMEvw6DxP14KVyqrl9-26" value="转场 3" style="rounded=0;whiteSpace=wrap;html=1;" vertex="1" parent="1">
          <mxGeometry x="340" y="695" width="40" height="40" as="geometry" />
        </mxCell>
        <mxCell id="YivMEvw6DxP14KVyqrl9-27" value="增加的片段" style="rounded=1;whiteSpace=wrap;html=1;" vertex="1" parent="1">
          <mxGeometry x="380" y="840" width="120" height="60" as="geometry" />
        </mxCell>
        <mxCell id="YivMEvw6DxP14KVyqrl9-28" value="转场 2" style="rounded=0;whiteSpace=wrap;html=1;" vertex="1" parent="1">
          <mxGeometry x="570" y="850" width="40" height="40" as="geometry" />
        </mxCell>
      </root>
    </mxGraphModel>
  </diagram>
</mxfile>
